<svg
	xmlns="http://www.w3.org/2000/svg"
	version="1.1"
	xmlns:xlink="http://www.w3.org/1999/xlink"
	xmlns:svgjs="http://svgjs.dev/svgjs"
	width="1000"
	height="623"
	viewBox="100 -100 800 700"
>
	<g transform="matrix(1,0,0,1,-0.6060606060606233,0.2522267206477409)">
		<svg
			viewBox="0 0 396 247"
			data-background-color="#1b4571"
			preserveAspectRatio="xMidYMid meet"
			height="623"
			width="1000"
			xmlns="http://www.w3.org/2000/svg"
			xmlns:xlink="http://www.w3.org/1999/xlink"
		>
			<g id="tight-bounds" transform="matrix(1,0,0,1,0.2400000000000091,-0.09999999999999432)">
				<svg viewBox="0 0 395.52 247.2" height="247.2" width="395.52">
					<g><svg></svg></g>
					<g>
						<svg viewBox="0 0 395.52 247.2" height="247.2" width="395.52">
							<g transform="matrix(1,0,0,1,122.467,37.08)">
								<svg viewBox="0 0 150.58599999999998 173.04" height="173.04" width="150.58599999999998">
									<g>
										<svg viewBox="0 0 150.58599999999998 173.04" height="173.04" width="150.58599999999998">
											<g>
												<svg viewBox="0 0 150.58599999999998 173.04" height="173.04" width="150.58599999999998">
													<g>
														<svg viewBox="0 0 150.58599999999998 173.04" height="173.04" width="150.58599999999998">
															<g id="textblocktransform">
																<svg
																	viewBox="0 0 150.58599999999998 173.04"
																	height="173.04"
																	width="150.58599999999998"
																	id="textblock"
																>
																	<g>
																		<svg
																			viewBox="0 0 150.58599999999998 173.04"
																			height="173.04"
																			width="150.58599999999998"
																		>
																			<g transform="matrix(1,0,0,1,0,0)">
																				<svg
																					width="150.58599999999998"
																					viewBox="-0.34999990463256836 -39 37.55000114440918 43"
																					height="173.04"
																					data-palette-color="#5ccbf9"
																				>
																					<path
																						d="M9.6 0L3.65 0 3.65-35 19.15-35Q22.5-35 25.28-33.52 28.05-32.05 29.7-29.4 31.35-26.75 31.35-23.25L31.35-23.25Q31.35-19.75 29.63-17.07 27.9-14.4 25.05-12.95L25.05-12.95 28.5-6.4Q28.8-5.85 29.2-5.58 29.6-5.3 30.25-5.3L30.25-5.3 33.2-5.3 33.2 0 29.35 0Q27.3 0 25.7-1.03 24.1-2.05 23.15-3.75L23.15-3.75 19.05-11.6Q18.55-11.55 18.03-11.55 17.5-11.55 17-11.55L17-11.55 9.6-11.55 9.6 0ZM9.6-29.75L9.6-16.8 18.4-16.8Q20.3-16.8 21.9-17.55 23.5-18.3 24.43-19.78 25.35-21.25 25.35-23.25L25.35-23.25Q25.35-25.3 24.4-26.75 23.45-28.2 21.9-28.98 20.35-29.75 18.45-29.75L18.45-29.75 9.6-29.75Z"
																						opacity="1"
																						transform="matrix(1,0,0,1,0,0)"
																						fill="#5ccbf9"
																						class="undefined-text-0"
																						data-fill-palette-color="primary"
																						id="text-0"
																					></path>
																				</svg>
																			</g>
																		</svg>
																	</g>
																</svg>
															</g>
														</svg>
													</g>
													<g></g>
												</svg>
											</g>
										</svg>
									</g>
								</svg>
							</g>
							<g mask='url("#4fee825e-06aa-46d2-9c78-1d51a7c0e30b")'>
								<g transform="matrix(3.5418641890219456, 0, 0, 3.5418641890219456, 40.678315110192926, 1)">
									<svg
										xmlns="http://www.w3.org/2000/svg"
										xmlns:xlink="http://www.w3.org/1999/xlink"
										version="1.1"
										x="0"
										y="0"
										viewBox="5.599993705749512 14.800000190734863 88.70000457763672 69.22908020019531"
										enable-background="new 0 0 100 100"
										xml:space="preserve"
										height="69.22908020019531"
										width="88.70000457763672"
										class="icon-none"
										data-fill-palette-color="accent"
										id="none"
									>
										<g fill="#f89d4e" data-fill-palette-color="accent">
											<path
												d="M50.2 84c-6.7 0-13.4 0-20.1 0-0.2 0-0.4 0-0.7 0-0.5-0.1-1.4 0.4-1.4-0.7 0-0.9 0.8-0.6 1.3-0.6 0.6-0.1 1.2 0 1.8 0 3.9 0 5.7-1.3 6.9-5 0.3-0.8 0.5-1.7 0.5-2.6 0-0.8 0.4-1.2 1.2-1.2 7.2 0 14.5 0 21.7 0 0.7 0 1 0.3 1.1 0.9 0.3 1.7 0.6 3.3 1.5 4.9 1 1.9 2.6 2.8 4.7 2.9 1 0 1.9 0 2.9 0 0.5 0 0.9 0 0.9 0.7 0 0.6-0.4 0.7-0.9 0.7-0.8 0-1.6 0-2.4 0C62.9 84 56.6 84 50.2 84z"
												fill="#f89d4e"
												data-fill-palette-color="accent"
											></path>
											<path
												d="M49.9 14.8c13.9 0 27.9 0 41.8 0 2 0 2.6 0.6 2.6 2.6 0 17.5 0 35 0 52.5 0 2.2-0.6 2.8-2.8 2.8-27.7 0-55.4 0-83.1 0-2.2 0-2.8-0.6-2.8-2.8 0-17.5 0-35 0-52.5 0-2.2 0.4-2.6 2.6-2.6C22.1 14.8 36 14.8 49.9 14.8zM49.7 19c-12.9 0-25.9 0-38.8 0-1.2 0-1.6 0.3-1.6 1.6 0 13.3 0 26.6 0 39.9 0 1.3 0.4 1.6 1.6 1.6 25.8 0 51.6 0 77.3 0 1.2 0 1.6-0.3 1.6-1.6 0-13.3 0-26.6 0-39.9 0-1.3-0.4-1.6-1.6-1.6C75.4 19 62.5 19 49.7 19z"
												fill="#f89d4e"
												data-fill-palette-color="accent"
											></path>
											<path
												d="M46.3 53.5c-2.4 0-2.4 0-1.8-2.4 2.1-7.3 4.2-14.5 6.3-21.8 0.3-1 0.6-1.4 1.8-1.4C56 28 56 28 55 31.3c-2 6.7-3.9 13.4-5.9 20.1C48.5 53.5 48.5 53.5 46.3 53.5z"
												fill="#f89d4e"
												data-fill-palette-color="accent"
											></path>
											<path
												d="M34.7 41c2.3 0.9 4.5 1.9 6.8 2.7 1.1 0.4 1.6 0.9 1.5 2.1-0.1 2.6 0 2.6-2.4 1.6-3.4-1.4-6.8-2.8-10.2-4.2-1.9-0.8-1.9-0.8-1.9-2.8 0-0.7 0.2-1.1 0.9-1.4 4.2-1.7 8.4-3.5 12.6-5.2 0.7-0.3 0.9-0.2 1 0.6 0.2 3 0.2 3-2.5 4.1-1.9 0.7-3.7 1.5-5.6 2.3C34.8 40.7 34.8 40.8 34.7 41z"
												fill="#f89d4e"
												data-fill-palette-color="accent"
											></path>
											<path
												d="M65.3 40.9c-2.1-0.9-4-1.7-5.8-2.4-0.1 0-0.2 0-0.3-0.1-2.2-0.9-2.8-2-2.3-4.4 0.2-0.8 0.5-0.4 0.9-0.2 2.5 1 5 2.1 7.5 3.1 1.6 0.7 3.2 1.4 4.8 2 1.2 0.4 0.9 1.4 1 2.2 0.1 0.8-0.1 1.3-1 1.7-4 1.6-7.9 3.3-11.9 4.9-1.3 0.6-1.2 0.5-1.4-0.9-0.2-1.8 0.3-2.9 2.2-3.4C61.1 42.8 63 41.9 65.3 40.9z"
												fill="#f89d4e"
												data-fill-palette-color="accent"
											></path>
										</g>
									</svg>
								</g>
							</g>
							<mask id="4fee825e-06aa-46d2-9c78-1d51a7c0e30b">
								<rect width="640" height="400" fill="white"></rect>
								<g transform="matrix(1,0,0,1,122.467,37.08)">
									<svg viewBox="0 0 150.58599999999998 173.04" height="173.04" width="150.58599999999998">
										<g>
											<svg viewBox="0 0 150.58599999999998 173.04" height="173.04" width="150.58599999999998">
												<g>
													<svg viewBox="0 0 150.58599999999998 173.04" height="173.04" width="150.58599999999998">
														<g>
															<svg viewBox="0 0 150.58599999999998 173.04" height="173.04" width="150.58599999999998">
																<g id="SvgjsG1467">
																	<svg
																		viewBox="0 0 150.58599999999998 173.04"
																		height="173.04"
																		width="150.58599999999998"
																		id="SvgjsSvg1466"
																	>
																		<g>
																			<svg
																				viewBox="0 0 150.58599999999998 173.04"
																				height="173.04"
																				width="150.58599999999998"
																			>
																				<g transform="matrix(1,0,0,1,0,0)">
																					<svg
																						width="150.58599999999998"
																						viewBox="-0.34999990463256836 -39 37.55000114440918 43"
																						height="173.04"
																						data-palette-color="#5ccbf9"
																					>
																						<path
																							d="M9.6 0L3.65 0 3.65-35 19.15-35Q22.5-35 25.28-33.52 28.05-32.05 29.7-29.4 31.35-26.75 31.35-23.25L31.35-23.25Q31.35-19.75 29.63-17.07 27.9-14.4 25.05-12.95L25.05-12.95 28.5-6.4Q28.8-5.85 29.2-5.58 29.6-5.3 30.25-5.3L30.25-5.3 33.2-5.3 33.2 0 29.35 0Q27.3 0 25.7-1.03 24.1-2.05 23.15-3.75L23.15-3.75 19.05-11.6Q18.55-11.55 18.03-11.55 17.5-11.55 17-11.55L17-11.55 9.6-11.55 9.6 0ZM9.6-29.75L9.6-16.8 18.4-16.8Q20.3-16.8 21.9-17.55 23.5-18.3 24.43-19.78 25.35-21.25 25.35-23.25L25.35-23.25Q25.35-25.3 24.4-26.75 23.45-28.2 21.9-28.98 20.35-29.75 18.45-29.75L18.45-29.75 9.6-29.75Z"
																							opacity="1"
																							transform="matrix(1,0,0,1,0,0)"
																							fill="#5ccbf9"
																							class="undefined-text-0"
																							data-fill-palette-color="primary"
																							id="SvgjsPath1465"
																							stroke-width="7"
																							stroke="black"
																							stroke-linejoin="round"
																						></path>
																					</svg>
																				</g>
																			</svg>
																		</g>
																	</svg>
																</g>
															</svg>
														</g>
														<g></g>
													</svg>
												</g>
											</svg>
										</g>
									</svg>
								</g>
							</mask>
						</svg>
					</g>
					<defs></defs>
				</svg>
				<rect width="395.52" height="247.2" fill="none" stroke="none" visibility="hidden"></rect>
			</g>
		</svg>
	</g>
</svg>
